<?xml version="1.0" encoding="utf-8"?>
<!-- Generator: Adobe Illustrator 16.0.0, SVG Export Plug-In . SVG Version: 6.00 Build 0)  -->
<!DOCTYPE svg PUBLIC "-//W3C//DTD SVG 1.1//EN" "http://www.w3.org/Graphics/SVG/1.1/DTD/svg11.dtd">
<svg version="1.1" id="mapSVG" xmlns="http://www.w3.org/2000/svg" xmlns:xlink="http://www.w3.org/1999/xlink" x="0px" y="0px"
	 width="959px" height="593px" viewBox="0 0 959 593" enable-background="new 0 0 959 593" xml:space="preserve">
<title>Blank US states map</title>
<g id="outlines">
	<path id="CT" stroke="#00FF00" stroke-miterlimit="10" d="M852,190.9l3.6-3.2l1.9-2.1l0.8,0.6l2.7-1.5l5.2-1.1l7-3.5l-0.602-4.2
		l-0.8-4.4l-1.6-6l-4.3,1.1l-21.802,4.7l0.602,3.1l1.5,7.3v8.3l-0.9,2.1l1.7,2.2L852,190.9z"/>
	<path id="DE" stroke="#00FF00" stroke-miterlimit="10" d="M834.4,247.2l-1,0.5l-3.602-2.4l-1.8-4.7l-1.9-3.6l-2.3-1l-2.1-3.6l0.5-2
		l0.5-2.3l0.1-1.1l-0.6,0.1l-1.7,1l-2,1.7l-0.2,0.3l1.4,4.1l2.3,5.6l3.7,16.1l5-0.3l6-1.1L834.4,247.2z"/>
	<path id="IA" stroke="#00FF00" stroke-miterlimit="10" d="M556.8,183.6l2.102,2.1l0.3,0.7l-2,3l0.3,4l2.6,4.1l3.102,1.6l2.398,0.3
		l0.9,1.8l0.2,2.4l2.5,1l0.898,1.1l0.5,1.6l3.802,3.3l0.6,1.9l-0.7,3l-1.7,3.7l-0.6,2.4l-2.1,1.6l-1.602,0.5l-5.7,1.5L561,230
		l0.8,1.8l1.7,1.5l-0.2,3.5l-1.898,1.4l-0.7,1.8v2.4l-1.4,0.4l-1.7,1.4l-0.5,1.7l0.4,1.7l-1.3,1l-2.3-2.7l-1.4-2.8l-8.3,0.8l-10,0.6
		l-49.2,1.2l-1.6-4.3l-0.4-6.7l-1.4-4.2l-0.698-5.2l-2.2-3.7l-1-4.6l-2.7-7.8l-1.1-5.6l-1.4-1.9l-1.3-2.9l1.7-3.8l1.198-6.1
		l-2.698-2.2l-0.302-2.4l0.7-2.4l1.8-0.3l61.1-0.6l21.2-0.7L556.8,183.6z"/>
	<path id="IL" stroke="#00FF00" stroke-miterlimit="10" d="M618.7,214.3l-0.8-2.6L616.6,208l-1.6-1.8l-1.5-2.6l-0.4-5.5l-15.898,1.8
		l-17.4,1h-12.3l0.2,2.1l2.2,0.9l1.1,1.4l0.4,1.4l3.898,3.4l0.7,2.4l-0.7,3.3l-1.7,3.7l-0.8,2.7l-2.398,1.9l-1.9,0.6l-5.2,1.3
		l-1.3,4.1l0.6,1.1l1.9,1.8l-0.2,4.3l-2.1,1.6l-0.5,1.3v2.8l-1.8,0.6l-1.4,1.2l-0.4,1.2l0.4,2l-1.6,1.3l-0.9,2.8l0.3,3.9l2.3,7
		l7,7.6l5.7,3.7v4.4l0.7,1.2l6.6,0.6l2.7,1.4l-0.7,3.5l-2.198,6.2l-0.802,3l2,3.7l6.4,5.3l4.8,0.801l2.2,5.101l2,3.4l-0.9,2.8
		l1.5,3.8l1.7,2.1l1.602-0.3l1-2.2l2.398-1.698l2.8-1l6.102,2.5l0.5-0.2V317.6l-1.2-2.698l0.4-2.802l2.398-1.6l3.4-1.2l-0.5-1.3
		l-0.8-2l1.198-1.3l1-2.7v-4l0.4-4.9l2.5-3l1.8-3.8l2.5-4l-0.5-5.3l-1.8-3.2l-0.3-3.3l0.8-5.3l-0.7-7.2l-1.1-15.8l-1.4-15.3
		l-0.898-11.7L618.7,214.3z"/>
	<path id="IN" stroke="#00FF00" stroke-miterlimit="10" d="M622.9,216.1l1.5,1l1.1-0.3l2.1-1.9l2.5-1.8L644.4,212l18.398-1.8
		l1.602,15.5l4.898,42.6l-0.6,2.9l1.3,1.6l0.2,1.3l-2.3,1.6l-3.602,1.7l-3.2,0.4l-0.5,4.8l-4.698,3.6l-2.9,4l0.2,2.4l-0.5,1.4h-3.5
		l-1.4-1.7l-5.2,3l0.2,3.101L641.9,298.6l-0.5-0.898L639,296l-3.6,1.5l-1.4,2.9l-1.2-0.602l-1.6-1.8l-4.4,0.5l-5.7,1l-2.5,1.3v-2.6
		l0.4-4.7l2.3-2.9l1.8-3.9l2.7-4.2l-0.5-5.8l-1.8-3.1l-0.3-3.2l0.8-5.3l-0.7-7.1l-0.898-12.6l-2.5-30.1L622.9,216.1z"/>
	<path id="KS" stroke="#00FF00" stroke-miterlimit="10" d="M485.9,259.5l-43.802-0.6l-40.6-1.2l-21.7-0.9l-4.3,64.8l24.3,1
		l44.7,2.102l46.3,0.6L503.4,325l0.698-35l-1.198-11.1l-2.5-2l-2.4-3l-2.3-3.6l0.6-3l1.7-1.4v-2.1l-0.8-0.7l-2.602-0.2l-3.5-3.4
		H485.9L485.9,259.5z"/>
	<path id="KY" stroke="#00FF00" stroke-miterlimit="10" d="M607.2,331.8l12.6-0.7l0.102-4.1h4.3l30.398-3.2l45.102-4.3l5.6-3.6
		l3.9-2.102l0.1-1.898l6-7.801l4.102-3.601l2.1-2.399l-3.3-2l-2.5-2.7l-3-3.8l-0.5-2.2L709.6,286l-0.898-1.9l-0.2-6.1l-2.6-2
		l-1.9-1.1l-0.5-2.3l-1.3,0.2l-2,1.2l-2.5,2.7l-1.9-1.7l-2.5-0.5l-2.398,1.4H688.6l-1.8-2l-5.6-0.1l-1.8-4.5l-2.9-1.5l-2.1,0.8
		l-4.2,0.2l-0.5,2.1l1.2,1.5l0.3,2.1l-2.8,2l-3.802,1.8l-2.6,0.4l-0.5,4.5l-4.9,3.6l-2.6,3.7l0.2,2.2l-0.9,2.3l-4.5-0.1l-1.3-1.3
		l-3.9,2.2l0.2,3.3L641.4,299.7l-0.802-1.4l-1.698-1.2l-2.7,1.102l-1.8,3.5l-2.2-1l-1.4-1.602l-3.7,0.4l-5.6,1l-2.8,1.3l-1.2,3.4
		l-1,1l1.5,3.7l-4.2,1.398l-1.898,1.4l-0.4,2.2l1.2,2.398v2.2l-1.602,0.4l-6.1-2.5l-2.3,0.898l-2,1.4l-0.8,1.8l1.698,2.399
		l-0.898,1.801L600.6,329l-2.398,1.3L596.1,332L607.2,331.8z"/>
	<path id="MA" stroke="#00FF00" stroke-miterlimit="10" d="M887.5,172.5l-0.5-2.3l0.8-1.5l2.9-1.5l0.8,3.1l-0.5,1.8l-2.4,1.5v1
		l1.9-1.5l3.9-4.5l3.898-1.9l4.2-1.5l-0.3-2.4l-1-2.9l-1.9-2.4l-1.8-0.8l-2.1,0.2l-0.5,0.5l1,1.3l1.5-0.8l2.1,1.6l0.8,2.7l-1.8,1.8
		l-2.3,1l-3.602-0.5l-3.898-6l-2.3-2.6h-1.8l-1.1,0.8l-1.9-2.6l0.302-1.5l2.398-5.2L881.4,143l-3.7,1.8l-1.8,2.9l-18.302,4.7
		l-13.8,2.5l-0.6,10.6l0.7,4.9l22-4.8l11.198-2.8l2,1.6l3.4,4.3l2.9,4.7L887.5,172.5z M900,173.9l2.2-0.7l0.5-1.7l1,0.1l1,2.3
		l-1.3,0.5l-3.9,0.1L900,173.9z M890.6,174.7l2.302-2.6h1.6l1.8,1.5l-2.398,1l-2.2,1L890.6,174.7z"/>
	<path id="MD" stroke="#00FF00" stroke-miterlimit="10" d="M834.8,264.1l1.7-3.8l0.5-4.8l-6.3,1.1l-5.8,0.3l-3.802-16.8l-2.3-5.5
		l-1.5-4.6l-22.2,4.3l-37.6,7.6l2,10.4l4.8-4.9l2.5-0.7l1.4-1.5l1.8-2.7l1.6,0.7l2.602-0.2l2.6-2.1l2-1.5l2.102-0.6l1.5,1.1
		l2.698,1.4l1.9,1.8l1.3,1.4l4.8,1.6l-0.6,2.9l5.8,2.1l2.102-2.6l3.698,2.5l-2.1,3.3l-0.7,3.3l-1.8,2.6v2.1l0.3,0.8l2,1.3l3.4,1.1
		l4.3-0.1l3.1,1l2.102,0.3l1-2.1l-1.5-2.1v-1.8l-2.4-2.1l-2.1-5.5l1.3-5.3l-0.2-2.1l-1.3-1.3c0,0,1.5-1.6,1.5-2.3
		c0-0.6,0.5-2.1,0.5-2.1l1.9-1.3l1.898-1.6l0.5,1l-1.5,1.6l-1.3,3.7l0.3,1.1l1.8,0.3l0.5,5.5l-2.1,1l0.3,3.6l0.5-0.2l1.102-1.9
		l1.6,1.8l-1.6,1.3l-0.302,3.4l2.602,3.4l3.898,0.5l1.602-0.8l3.2,4.2l1,0.4L834.8,264.1z M820.3,264.3l1.102,2.5l0.198,1.8
		l1.102,1.9c0,0,0.898-0.9,0.898-1.2c0-0.3-0.698-3.1-0.698-3.1l-0.7-2.3L820.3,264.3z"/>
	<path id="ME" stroke="#00FF00" stroke-miterlimit="10" d="M865.8,91.9l1.5,0.4v-2.6l0.8-5.5l2.602-4.7l1.5-4l-1.9-2.4v-6l0.8-1
		l0.802-2.7l-0.2-1.5l-0.2-4.8l1.8-4.8l2.9-8.9l2.1-4.2h1.3l1.302,0.2v1.1l1.3,2.3l2.7,0.6l0.8-0.8v-1l4-2.9l1.8-1.8l1.5,0.2l6,2.4
		l1.9,1l9.1,29.9h6l0.8,1.9l0.2,4.8l2.9,2.3h0.8l0.2-0.5l-0.5-1.1l2.8-0.5l1.898,2.1l2.302,3.7V85l-2.102,4.7l-1.898,0.6l-3.4,3.1
		l-4.8,5.5c0,0-0.602,0-1.3,0c-0.602,0-1-2.1-1-2.1L911.1,97l-1,1.5L907.7,100l-1,1.5l1.6,1.5l-0.5,0.6l-0.5,2.7l-1.899-0.2v-1.6
		l-0.301-1.3l-1.5,0.3l-1.8-3.2l-2.1,1.3l1.3,1.5l0.3,1.1l-0.8,1.3l0.3,3.1l0.2,1.6l-1.6,2.6l-2.9,0.5l-0.3,2.9l-5.3,3.1l-1.302,0.5
		l-1.6-1.5l-3.1,3.6l1,3.2l-1.5,1.3l-0.2,4.4l-1.102,6.3l-2.198-0.9l-0.5-3.1l-4-1.1l-0.2-2.5l-11.7-37.43L865.8,91.9z M902.3,107.5
		l1.5-1.5l1.4,1.1l0.6,2.4l-1.7,0.9L902.3,107.5z M909,101.6l1.8,1.9c0,0,1.3,0.1,1.3-0.2c0-0.3,0.2-2,0.2-2l0.9-0.8l-0.8-1.8
		l-2,0.7L909,101.6z"/>
	<path id="MI" stroke="#00FF00" stroke-miterlimit="10" d="M644.5,211l19.1-1.9l0.2,1.1l9.9-1.5l12-1.7l0.1-0.6l0.2-1.5l2.1-3.7
		l2-1.7l-0.198-5.1l1.6-1.6l1.1-0.3l0.2-3.6l1.5-3l1.102,0.6l0.198,0.6l0.802,0.2l1.898-1l-0.398-9.1l-3.2-8.2l-2.3-9.1l-2.4-3.2
		l-2.6-1.8L685.8,156l-3.898,1.8l-1.9,5l-2.7,3.7l-1.1,0.6l-1.5-0.6c0,0-2.602-1.5-2.4-2.1s0.5-5,0.5-5l3.4-1.3l0.8-3.4l0.6-2.6
		l2.4-1.6l-0.3-10l-1.602-2.3l-1.3-0.8l-0.8-2.1l0.8-0.8l1.602,0.3l0.198-1.6L676,131l-1.3-2.6H672.1l-4.5-1.5l-5.5-3.4H659.4
		l-0.602,0.6l-1-0.5l-3.1-2.3l-2.9,1.8l-2.898,2.3l0.3,3.6l1,0.3l2.1,0.5l0.5,0.8l-2.6,0.8l-2.602,0.3l-1.5,1.8l-0.3,2.1l0.3,1.6
		l0.302,5.5l-3.602,2.1l-0.6-0.2v-4.2l1.3-2.4l0.6-2.4l-0.8-0.8l-1.898,0.8l-1,4.2l-2.7,1.1l-1.8,1.9l-0.2,1l0.6,0.8l-0.6,2.6
		l-2.3,0.5v1.1l0.8,2.4l-1.102,6.1l-1.6,4l0.6,4.7l0.5,1.1l-0.8,2.4l-0.3,0.8l-0.3,2.7l3.6,6l2.9,6.5l1.5,4.8l-0.8,4.7l-1,6
		l-2.4,5.2l-0.3,2.7l-3.2,3.1L644.5,211z M611.2,138.6l-1.3-1.1l-1.802-10.4l-3.698-1.3l-1.7-2.3l-12.602-2.8l-2.8-1.1l-8.1-2.2
		l-7.8-1l-3.9-5.3l0.7-0.5l2.7-0.8l3.6-2.3v-1l0.6-0.6l6-1l2.4-1.9l4.4-2.1l0.198-1.3l1.9-2.9l1.8-0.8l1.3-1.8l2.302-2.3l4.398-2.4
		l4.7-0.5l1.1,1.1l-0.3,1l-3.7,1l-1.5,3.1l-2.3,0.8l-0.5,2.4l-2.398,3.2l-0.302,2.6l0.802,0.5l1-1.1l3.6-2.9l1.3,1.3h2.3l3.2,1
		l1.5,1.1l1.5,3.1l2.7,2.7l3.9-0.2l1.5-1l1.6,1.3l1.6,0.5l1.302-0.8h1.1l1.6-1l4-3.6l3.4-1.1l6.6-0.3l4.5-1.9l2.602-1.3l1.5,0.2v5.7
		l0.5,0.3l2.898,0.8l1.9-0.5l6.1-1.6l1.102-1.1l1.5,0.5v7l3.2,3.1l1.3,0.6l1.3,1l-1.3,0.3l-0.8-0.3l-3.7-0.5l-2.102,0.6l-2.3-0.2
		l-3.2,1.5h-1.8l-5.8-1.3l-5.2,0.2l-1.898,2.6l-7,0.6l-2.4,0.8l-1.1,3.1l-1.302,1.1l-0.5-0.2l-1.5-1.6l-4.5,2.4h-0.6l-1.1-1.6
		l-0.802,0.2l-1.898,4.4l-1,4l-3.2,6.9L611.2,138.6z M581.6,82.1L583.4,80l2.198-0.8l5.4-3.9l2.3-0.6l0.5,0.5l-5.1,5.1l-3.3,1.9
		l-2.102,0.9L581.6,82.1z M667.8,114.2l0.602,2.5l3.198,0.2l1.302-1.2c0,0-0.102-1.5-0.4-1.6c-0.3-0.2-1.6-1.9-1.6-1.9l-2.2,0.2
		l-1.602,0.2l-0.3,1.1L667.8,114.2z"/>
	<path id="MN" stroke="#00FF00" stroke-miterlimit="10" d="M464.6,66.79L464,70.7v10.27l1.6,5.03l1.9,3.32l0.5,9.93l1.8,13.45
		l1.8,7.3l0.4,6.4v5.3l-1.6,1.8l-1.802,1.3v1.5l0.9,1.7l4.1,3.5l0.7,3.2v35.9l60.3-0.6l21.2-0.7l-0.5-6l-1.8-2.1l-7.2-4.6l-3.6-5.3
		l-3.4-0.9l-2-2.8h-3.2l-3.5-3.8l-0.5-7l0.102-3.9l1.5-3l-0.7-2.7l-2.8-3.1l2.2-6.1l5.398-4l1.2-1.4l-0.2-8l0.2-3l2.6-3l3.802-2.9
		l1.3-0.2l4.5-5l1.8-0.8l2.3-3.9l2.4-3.6l3.1-2.6l4.8-2l9.2-4.1l3.9-1.8l0.6-2.3l-4.398,0.4l-0.7,1.1H571.6l-1.8-3.1l-8.898,0.3
		l-1,0.8h-1l-0.5-1.3l-0.802-1.8l-2.6,0.5l-3.2,3.2l-1.6,0.8H547.1l-2.6-1v-2.1l-1.3-0.2l-0.5,0.5l-2.602-1.3l-0.5-2.9l-1.5,0.5
		l-0.5,1l-2.398-0.5l-5.3-2.4l-3.9-2.6h-2.9l-1.3-1l-2.3,0.6l-1.1,1.1l-0.302,1.3h-4.8v-2.1l-6.3-0.3l-0.3-1.5h-4.8l-1.602-1.6
		l-1.5-6.1l-0.8-5.5l-1.9-0.8l-2.3-0.5l-0.6,0.2l-0.3,8.2L462.8,61.27L464.6,66.79z"/>
	<path id="MO" stroke="#00FF00" stroke-miterlimit="10" d="M593.1,338.7l0.5-5.9l4.2-3.398l1.9-1v-2.9l0.7-1.6L599.3,322.3
		l-2.398,0.3l-2.102-2.5l-1.7-4.5l0.9-2.6l-2-3.2l-1.8-4.6l-4.602-0.7l-6.8-5.6l-2.2-4.201l0.802-3.3l2.198-6l0.602-3l-1.9-1
		l-6.898-0.6l-1.102-1.9v-4.1l-5.3-3.5l-7.2-7.8l-2.3-7.3L555,252l0.7-2.4l-2.602-3.1l-1.198-2.4l-7.7,0.8l-10,0.6l-48.8,1.2
		l1.3,2.6l-0.102,2.2l2.302,3.6l3,3.9l3.1,3l2.6,0.2l1.4,1.1v2.9l-1.8,1.6l-0.5,2.3l2.1,3.2l2.4,3l2.6,2.1l1.3,11.6l-0.8,40l0.5,5.7
		l23.7-0.2l23.3-0.7l32.5-1.3l2.2,3.7l-0.8,3.1l-3.102,2.5l-0.5,1.8l5.2,0.5l4.102-1.1L593.1,338.7z"/>
	<path id="ND" stroke="#00FF00" stroke-miterlimit="10" d="M471,126.4l-0.4-6.2l-1.8-7.3L467,99.29l-0.5-9.7l-1.9-3.18l-1.6-5.32
		V70.68l0.6-3.85l-1.8-5.54l-28.6-0.59L414.6,60.1l-26.5-1.3l-25.2-2.16L362,71.06L357.3,122l56.8,3.9l56.9,1.7V126.4z"/>
	<path id="NE" stroke="#00FF00" stroke-miterlimit="10" d="M470.3,204.3l-1-2.3l-0.5-1.6l-2.898-1.6l-4.802-1.5l-2.198-1.2
		l-2.602,0.1l-3.7,0.4l-4.198,1.2l-6-4.1l-2.2-2l-10.7,0.6l-41.5-2.4l-35.6-2.2l-4.3,43.7l33.1,3.3l-1.4,21.1l21.7,1l40.6,1.2
		l43.802,0.6h4.5l-2.2-3l-2.602-3.9l0.102-2.3l-1.4-2.7l-1.898-5.2l-0.4-6.7l-1.399-4.1l-0.5-5l-2.301-3.7l-1-4.7l-2.8-7.9l-1-5.3
		L470.3,204.3z"/>
	<path id="NH" stroke="#00FF00" stroke-miterlimit="10" d="M881.7,141.3l1.1-3.2l-2.7-1.2l-0.5-3.1l-4.1-1.1l-0.3-3l-11.7-37.48
		l-0.7,0.08l-0.6,1.6l-0.602-0.5l-1-1l-1.5,1.9l-0.198,2.29l0.5,8.41l1.898,2.8v4.3l-3.898,4.8l-2.4,0.9v0.7l1.1,1.9v8.6l-0.8,9.2
		l-0.2,4.7l1,1.4L855.9,149l-0.5,1.5l1,1.1l5.1-1.2l13.8-3.5l1.7-2.9l4-1.9L881.7,141.3z"/>
	<path id="NJ" stroke="#00FF00" stroke-miterlimit="10" d="M823.7,228.3l0.1-1.5l2.7-1.3l1.7-2.8l1.7-2.4l3.3-3.2v-1.2l-6.102-4.1
		l-1-2.7l-2.698-0.3l-0.102-0.9l-0.7-2.2l2.2-1.1l0.2-2.9l-1.3-1.3l0.2-1.2l1.898-3.1V193l2.5-3.1l5.602,2.5l6.398,1.9l2.5,1.2
		l0.102,1.8l-0.5,2.7l0.398,4.5l-2.1,1.9l-1.102,1l0.5,0.5l2.7-0.3l1.102-0.8l1.6,3.4l0.2,9.4l0.6,1.1l-1.1,5.5l-3.102,6.5l-2.698,4
		l-0.802,4.8l-2.1,2.4h-0.8l-0.3-2.7l0.8-1l-0.2-1.5l-4-0.6l-4.8-2.3l-3.2-2.9l-1-2L823.7,228.3z"/>
	<path id="NY" stroke="#00FF00" stroke-miterlimit="10" d="M843.4,200l0.5-2.7l-0.2-2.4l-3-1.5l-6.5-2l-6-2.6l-0.602-0.4l-2.698-0.3
		l-2-1.5l-2.102-5.9l-3.3-0.5l-2.4-2.4l-38.398,8.1l-31.602,6l-0.5-6.5l1.602-1.2l1.3-1.1l1-1.6l1.8-1.1l1.9-1.8l0.5-1.6l2.1-2.7
		l1.102-1l-0.2-1l-1.3-3.1L752.6,169l-1.898-6.1l2.898-1.8l4.4-1.5l4-1.3l3.2-0.5l6.3-0.2l1.9,1.3l1.6,0.2l2.1-1.3l2.602-1.1
		l5.2-0.5l2.1-1.8l1.8-3.2l1.602-1.9h2.1l1.9-1.1l0.198-2.3l-1.5-2.1l-0.3-1.5l1.102-2.1v-1.5H792.1l-1.8-0.8l-0.8-1.1l-0.2-2.6
		l5.8-5.5l0.602-0.8l1.5-2.9l2.898-4.5l2.7-3.7l2.102-2.4l2.398-1.8l3.102-1.2l5.5-1.3l3.198,0.2l4.5-1.5l7.4-2.2l0.7,4.9l2.398,6.5
		l0.802,5l-1,4.2l2.6,4.5l0.8,2l-0.898,3.2l3.698,1.7l2.7,10.2v5.8l-0.6,10.9l0.8,5.4l0.7,3.6l1.5,7.3v8.1l-1.102,2.3l2.102,2.7
		l0.5,0.9l-1.9,1.8l0.3,1.3l1.302-0.3l1.5-1.3l2.3-2.6l1.1-0.6l1.602,0.6l2.3,0.2l7.898-3.9l2.9-2.7l1.3-1.5l4.2,1.6l-3.4,3.6
		l-3.898,2.9l-7.102,5.3l-2.6,1l-5.8,1.9l-4,1.1l-1-0.4L843.4,200z"/>
	<path id="OH" stroke="#00FF00" stroke-miterlimit="10" d="M663.8,211.2l1.7,15.5l4.8,41.1l3.9-0.2l2.3-0.8l3.6,1.8l1.7,4.2l5.4,0.1
		l1.8,2h1.7l2.398-1.4l3.102,0.5l1.5,1.3l1.8-2l2.3-1.4l2.4-0.4l0.6,2.7l1.602,1l2.6,2l0.8,0.2l2-0.1l1.2-0.6v-2.1l1.7-1.5l0.1-4.8
		l1.102-4.2l1.898-1.3l1,0.7l1,1.1l0.7,0.2l0.4-0.4l-0.9-2.7v-2.2l1.1-1.4l2.5-3.6l1.302-1.5l2.198,0.5l2.102-1.5l3-3.3l2.2-3.7
		l0.198-5.4l0.5-5V230l-1.198-3.2l1.198-1.8l1.302-1.2L735.8,221l-4.3-25.6l-6.2,3.7l-3.898,2.3l-3.4,3.7l-4,3.9l-3.2,0.8
		l-2.898,0.5l-5.5,2.6l-2.102,0.2l-3.4-3.1l-5.2,0.6l-2.602-1.5l-2.198-1.3L663.8,211.2z"/>
	<path id="OK" stroke="#00FF00" stroke-miterlimit="10" d="M411.9,334.9l-1.802,24.3l-0.898,18l0.2,1.6l4,3.602l1.698,0.898h0.9
		l0.9-2.1l1.5,1.898l1.6,0.102l0.3-0.2l0.2-1.1l2.8,1.398l-0.398,3.5l3.8,0.5l2.5,1l4.2,0.602l2.3,1.6l2.5-1.7l3.5,0.7l2.2,3.1
		l1.198,0.102v2.3l2.102,0.7l2.5-2.102l1.8,0.602l2.7,0.1l0.7,2.3l4.398,1.802l1.7-0.302l1.9-4.198h1.3l1.1,2.1l4.2,0.8l3.4,1.3
		l3,0.802l1.6-0.7l0.7-2.7h4.5l1.898,0.9l2.7-1.9h1.4l0.6,1.4h3.602l2-1.802l2.3,0.602l1.7,2.2l3,1.698l3.398,0.9l1.9,1.2
		l-0.3-37.602l-1.4-10.898l-0.1-8.602l-1.5-6.6l-0.602-6.8l0.102-4.3l-12.602,0.3l-46.3-0.5l-44.7-2.102l-41.5-1.8l-0.4,10.7
		L411.9,334.9z"/>
	<path id="PA" stroke="#00FF00" stroke-miterlimit="10" d="M736.6,192.2l1.302-0.5l5.698-5.5l0.7,6.9l33.5-6.5l36.9-7.8l2.3,2.3
		l3.1,0.4l2,5.6l2.4,1.9l2.8,0.4l0.102,0.1l-2.602,3.2v3.1l-1.898,3.1l-0.2,1.9l1.3,1.3l-0.2,1.9l-2.398,1.1l1,3.4l0.198,1.1
		l2.802,0.3l0.898,2.5l5.9,3.9v0.4l-3.102,3l-1.5,2.2l-1.698,2.8l-2.7,1.2l-1.4,0.3l-2.1,1.3l-1.602,1.4l-22.398,4.3L757,241
		l-11.3,1.4l-3.9,0.7l-5.1-22.4l-4.3-25.9L736.6,192.2z"/>
	<path id="RI" stroke="#00FF00" stroke-miterlimit="10" d="M873.6,175.7l-0.8-4.4l-1.6-6l5.7-1.5l1.5,1.3l3.398,4.3l2.8,4.4
		l-2.8,1.4l-1.3-0.2l-1.1,1.8l-2.4,1.9l-2.8,1.1L873.6,175.7z"/>
	<path id="SD" stroke="#00FF00" stroke-miterlimit="10" d="M471,181.1l-0.9,3.2l0.4,3l2.6,2l-1.198,5.4l-1.802,4.1l1.5,3.3l0.7,1.1
		l-1.3,0.1l-0.7-1.6l-0.6-2l-3.3-1.8l-4.802-1.5l-2.5-1.3l-2.898,0.1l-3.9,0.4l-3.8,1.2l-5.3-3.8l-2.7-2.4l-10.9,0.8l-41.5-2.4
		l-35.6-2.2L354,162l2.8-34l0.4-5l56.898,3.9l56.9,1.7v2.7l-1.3,1.5l-2,1.5l-0.102,2.2l1.102,2.2l4.1,3.4l0.5,2.7v35.9L471,181.1z"
		/>
	<g>
		<path id="AL" stroke="#00FF00" stroke-miterlimit="10" d="M628.5,466.4l0.6,0.198l1.302-2.698l1.5-4.4l2.3,0.6l3.1,6v1l-2.7,1.9
			l2.7,0.3l5.2-2.5l-0.3-7.6l-2.5-1.8l-2-2l0.398-4l10.5-1.5l25.7-2.9l6.7-0.6l5.6,0.1l-0.5-2.2l-1.5-0.8l-0.898-1.1l1-2.602
			l-0.4-5.2l-1.6-4.5l0.8-5.1l1.7-4.8l-0.2-1.7l-1.8-0.7l-0.5-3.6l-2.7-3.4l-2-6.5l-1.4-6.7l-1.8-5l-3.8-16l-3.5-7.898l-0.8-5.602
			l0.1-2.198l-9,0.8l-23.398,2.2l-12.2,0.8L622,371.1l0.2,16.7l-0.7,31l-0.3,14.102l2.8,18.8l1.6,14.7L628.5,466.4L628.5,466.4z"/>
		<path id="AR" stroke="#00FF00" stroke-miterlimit="10" d="M587.3,346.1L580.9,345.4l0.898-3.102l3.102-2.6l0.6-2.3l-1.8-2.9
			l-31.9,1.2l-23.3,0.7l-23.6,0.3l1.5,6.898l0.1,8.5l1.4,10.9l0.3,38.2l2.1,1.6l3-1.2l2.9,1.2L516.6,412.9l25.2-0.2l26.8-0.8
			l0.9-1.9l-0.3-3.8l-1.7-3.102l1.5-1.398l-1.4-2.2l0.7-2.4l1.102-5.898l2.698-2.3l-0.8-2.2l4-5.602l2.5-1.1l-0.1-1.7l-0.5-1.7
			l2.898-5.8l2.5-1.1l0.2-3.3l2.102-1.4l0.898-4.1l-1.398-4l4.198-2.4l0.302-2.1l1.198-4.2l0.9-3.102L587.3,346.1z"/>
		<path id="FL" stroke="#00FF00" stroke-miterlimit="10" d="M750.2,445.2l-5.2-0.7l-0.7,0.8l1.5,4.4l-0.398,5.2l-4.102-1l-0.2-2.802
			H737l-5.3,0.7l-32.4,1.9l-8.2-0.3l-1.698-1.7l-2.5-4.2H681l-6.6,0.5l-35.4,4.2l-0.3,2.8l1.6,1.6l2.9,2l0.3,8.4l3.3-0.6l6-2.102
			l6-0.5l4.4-0.6l7.6,1.8l8.102,3.9l1.6,1.5l2.9,1.1l1.6,1.9l0.3,2.698l3.2-1.3h3.9l3.6-1.898l3.7-3.602l3.1,0.2l0.5-1.101l-0.8-1
			l0.2-1.899l4-0.8h2.6l2.9,1.5l4.2,1.5l2.398,3.7l2.7,1l1.1,3.398l3.4,1.602l1.6,2.6l1.9,0.6l5.2,1.302l1.3,3.1l3,3.7v9.5l-1.5,4.7
			l0.3,2.698l1.3,4.802l1.802,4l0.8-0.5l1.5-4.5l-2.602-1l-0.3-0.602l1.602-0.6l4.5,1l0.198,1.6l-3.198,5.5l-2.102,2.4l3.602,3.7
			l2.6,3.1l2.9,5.3l2.898,3.9l2.102,5l1.8,0.3l1.6-2.1l1.8,1.1l2.602,4l0.6,3.6l3.101,4.4l0.8-1.3l3.899,0.3l3.601,2.3l3.399,5.2
			l0.801,3.4l0.3,2.898l1.101,1l1.3,0.5l2.4-1l1.5-1.6l3.899-0.2L793,560l2.699-3.2l-0.5-1.898l-0.301-2.4l0.602-1.9l-0.301-1.898
			l2.399-1.3l0.3-3.4l-0.6-1.8l-0.5-12l-1.3-7.602L791,514.4l-3.6-5.802l-2.602-5.3L781.9,500.4L779,493l0.7-1.4l1.1-1.3l-1.6-2.898
			l-4-3.7l-4.8-5.5l-3.7-6.3l-5.3-9.4l-3.7-9.7l-2.3-7.3L750.2,445.2z M767.9,577.9l2.398-0.602l1.3-0.2l1.5-2.3l2.302-1.6l1.3,0.5
			l1.7,0.3l0.398,1.1l-3.5,1.2l-4.2,1.5l-2.3,1.2L767.9,577.9z M781.4,572.9l1.198,1.1l2.7-2.1l5.3-4.2l3.7-3.9l2.5-6.6l1-1.7
			l0.2-3.4l-0.7,0.5l-1,2.802l-1.5,4.6l-3.2,5.3l-4.398,4.2l-3.4,1.9L781.4,572.9z"/>
		<path id="GA" stroke="#00FF00" stroke-miterlimit="10" d="M750.2,444.2l-5.602-0.7l-1.398,1.6l1.6,4.7l-0.3,3.9l-2.2-0.602l-0.2-3
			H736.9l-5.302,0.7l-32.3,1.9l-7.7-0.3l-1.398-1.2l-2.5-4.3l-0.8-3.302L685.3,442.7l-0.5-0.5l0.9-2.2l-0.4-5.5l-1.6-4.5l0.8-4.9
			l1.7-4.8l-0.2-2.5l-1.9-0.7L683.7,413.9l-2.8-3.5l-1.9-6.2l-1.5-7l-1.7-4.8l-3.8-16l-3.5-8l-0.8-5.302l0.1-2.3l3.3-0.3l13.602-1.6
			l18.6-2l6.3-1.102l0.5,1.4l-2.2,0.901l-0.9,2.2l0.4,2l1.398,1.602l4.3,2.698l3.2-0.1l3.2,4.7l0.6,1.6l2.302,2.8l0.5,1.7l4.698,1.8
			l3,2.2l2.302,3l2.3,1.3l2,1.802l1.398,2.698l2.102,1.9l4.1,1.8l2.7,6l1.7,5.102l2.8,0.698l2.1,1.9l2,5.7l2.9,1.6l1.7-0.8
			l0.398,1.2l-3.3,6.2l0.5,2.6l-1.5,4.2l-2.3,10l0.8,6.3L750.2,444.2z"/>
		<path id="LA" stroke="#00FF00" stroke-miterlimit="10" d="M526.9,485.9l8.1-0.302l10.3,3.602l6.5,1.1l3.7-1.5l3.2,1.102l3.2,1
			l0.8-2.102l-3.2-1.1l-2.6,0.5l-2.7-1.602l0.8-1.5l3.1-1l1.802,1.5l1.8-1l3.2,0.602l1.5,2.398l0.3,2.302l4.5,0.3l1.8,1.8l-0.8,1.6
			l-1.3,0.802l1.6,1.6l8.4,3.6l3.6-1.3l1-2.398l2.6-0.602l1.802-1.5l1.3,1l0.8,2.9l-2.3,0.8l0.6,0.6l3.4-1.3l2.3-3.398l0.8-0.5
			l-2.1-0.302l0.8-1.6l-0.2-1.5l2.102-0.5l1.1-1.3l0.6,0.8l0.601,3.1l4.199,0.602l4,1.898l1,1.5h2.9l1.1,1l2.301-3.1V493h-1.301
			l-3.398-2.7l-5.801-0.8l-3.199-2.3l1.1-2.7l2.301,0.3l0.199-0.6l-1.8-1v-0.5h3.2l1.8-3.102L607,477.7l-0.301-2.7l-1.5,0.2
			l-1.899,2.1l-0.601,2.602l-3.101-0.602l-1-1.8l1.8-1.9l1.9-1.698l-2.2-6.5l-3.399-3.4l1-7.3l-0.199-0.5l-1.301,0.2l-33.101,1.398
			l-0.8-2.398l0.8-8.5l8.601-14.802l-0.899-2.6l1.399-0.4l0.399-2l-2.2-2l0.102-1.898l-2-4.5l-0.4-5.102l0.101-0.698l-26.399,0.8
			l-25.2,0.1l0.4,9.7l0.699,9.5l0.5,3.7l2.601,4.5l0.899,4.398l4.301,6l0.3,3.102l0.6,0.8l-0.699,8.3l-2.801,4.602l1.2,2.398
			l-0.5,2.602l-0.8,7.3l-1.3,3l0.199,3.7L526.9,485.9z"/>
		<path id="MS" stroke="#00FF00" stroke-miterlimit="10" d="M604.3,472.5l2.602-4.2l1.8,0.8l6.8-1.898l2.1,0.3l1.5,0.8h5.2l0.4-1.6
			l-1.7-14.8l-2.8-19l1-45.102l-0.2-16.7l0.2-6.3l-4.8,0.3L596.8,366.7l-13,0.398l-0.2,3.2l-2.8,1.3l-2.6,5.102l0.5,1.6l0.1,2.4
			l-2.898,1.1l-3.5,5.102l0.8,2.3l-3,2.5l-1,5.7L568.6,399.3l1.602,2.5l-1.5,1.4l1.5,2.8l0.3,4.2l-1.2,2.5l-0.2,0.898l0.4,5l2,4.5
			l-0.1,1.7l2.3,2L573,429.9l-0.9,0.3l0.602,1.898l-8.602,15l-0.8,8.2l0.5,1.5l24.2-0.7l8.2-0.698l1.898-0.302l0.602,1.4l-1,7.1
			l3.3,3.302l2.2,6.398L604.3,472.5z"/>
		<path id="NC" stroke="#00FF00" stroke-miterlimit="10" d="M786.7,357.7L774,350l-3.1-0.8l-16.602,2.1l-1.6-3l-2.8-2.2l-16.7,0.5
			l-7.4,0.9l-9.2,4.5l-6.8,2.7l-6.5,1.2L689.9,357.3l0.1-4.1l1.7-1.3l2.7-0.7l0.698-3.8l3.9-2.5l3.9-1.5l4.5-3.7l4.398-2.3l0.7-3.2
			l4.1-3.8l0.7,1l2.5,0.198l2.4-3.6l1.7-0.4l2.6,0.302l1.8-4l2.5-2.4l0.5-1.8l0.102-3.5l4.398,0.1l38.5-5.6l57.5-12.3l2,4.8
			l3.602,6.5l2.398,2.398l0.602,2.302L838,314.6l0.8,0.602l-0.3,4.2l-2.6,1.3l-0.602,2.1l-1.3,2.9l-3.7,1.6L827.9,327l-1.5-0.2
			l-1.602-1.3l0.3,1.3v1h1.9l0.8,1.3L825.9,335.4h4.198l0.602,1.6l2.3-2.3l1.3-0.5l-1.898,3.6l-3.102,4.8H828l-1.1-0.5l-2.7,0.602
			L819,345.1l-6.5,5.302l-3.4,4.698l-1.898,6.5l-0.5,2.4l-4.7,0.5l-5.1,1.5L786.7,357.7z M836,331.5l2.6-2.5l3.2-2.6l1.5-0.602
			l0.2-2l-0.6-6.1l-1.5-2.3l-0.602-1.9l0.7-0.2l2.7,5.5l0.398,4.4l-0.197,3.4l-3.4,1.5l-2.8,2.4l-1.102,1.2L836,331.5z"/>
		<path id="SC" stroke="#00FF00" stroke-miterlimit="10" d="M759,413.6l-2.1-1L755,407l-2.5-2.3l-2.5-0.5l-1.5-4.602l-3-6.5
			l-4.2-1.8l-1.898-1.8l-1.2-2.6l-2.4-2l-2.3-1.302l-2.2-2.898l-3.2-2.4l-4.398-1.7l-0.4-1.398l-2.3-2.8l-0.5-1.5l-3.8-5.4l-3.4,0.1
			l-3.898-2.5l-1.2-1.198l-0.2-1.4l0.6-1.6l2.7-1.302l-0.8-2l6.4-2.698l9.198-4.5l7.102-0.9L749.6,347l2.302,1.9l1.8,3.5l4.6-0.802
			l12.6-1.5l2.7,0.802l12.5,7.398l10.101,8.3l-5.301,5.4l-2.6,6.1l-0.5,6.302l-1.6,0.8l-1.102,2.7l-2.398,0.6l-2.102,3.6l-2.698,2.7
			l-2.302,3.4L774,399l-3.6,3.4l-2.9,0.198l1,3.2l-5,5.3l-2.3,1.602L759,413.6z"/>
		<path id="TN" stroke="#00FF00" stroke-miterlimit="10" d="M670.8,359.6l-13.1,1.2l-23.3,2.2l-37.602,2.7L585,366.1l0.9-0.6
			l0.898-4.5l-1.2-3.6l3.9-2.302l0.4-2.5l1.198-4.3l3-9.5l0.5-5.6l0.302-0.2l12.3-0.2l13.6-0.8l0.102-3.9l3.5-0.1l30.398-3.3l54-5.2
			l10.3-1.5l7.602-0.2l2.398-1.898l1.302,0.3l-0.102,3.3l-0.398,1.6l-2.4,2.2l-1.6,3.602l-2-0.4l-2.4,0.9l-2.2,3.3l-1.398-0.2
			l-0.802-1.2l-1.1,0.4l-4.3,4l-0.8,3.1l-4.2,2.2l-4.3,3.6l-3.802,1.5l-4.398,2.8l-0.602,3.6l-2.5,0.5l-2,1.7l-0.198,4.8
			L670.8,359.6z"/>
		<path id="TX" stroke="#00FF00" stroke-miterlimit="10" d="M282.8,425.6l37,3.602l29.3,1.898l7.4-97.698l54.4,2.398l-1.7,23.3
			l-1,18l0.2,2l4.398,4.102l2,1.1h1.8l0.5-1.2l0.7,0.9l2.4,0.2l1.1-0.602V383.4l1,0.5L421.9,387.6l4.5,0.7l2.398,0.9l4.2,0.7
			l2.6,1.8l2.802-1.9l2.698,0.602l2.2,3.1l0.8,0.1v2.102l3.302,1.1l2.5-2.1l1.5,0.5l2.1,0.1l0.6,2.102l5.2,2l2.3-0.5l1.9-4h0.1
			l1.102,1.898l4.6,0.9l3.4,1.3l3.2,1l2.398-1.2l0.7-2.3h3.6l2.102,1l3-2h0.398l0.5,1.4h4.7l1.9-1.802l1.3,0.4l1.7,2.1l3.3,1.9
			l3.4,1l2.5,1.4l2.698,2l3.102-1.2l2.1,0.8l0.7,20l0.7,9.5l0.6,4.1l2.602,4.4l0.898,4.5l4.2,5.9l0.3,3.1l0.602,0.8l-0.7,7.7
			l-2.9,4.8l1.3,2.602l-0.5,2.398l-0.8,7.2l-1.3,3l0.3,4.2l-5.6,1.6l-9.9,4.5l-1,1.9l-2.6,1.898l-2.102,1.5l-1.3,0.802l-5.7,5.3
			l-2.698,2.1l-5.302,3.2l-5.698,2.4L473.1,516.3l-1.8,1.5l-5.8,3.602l-3.4,0.6l-3.898,5.5l-4,0.3l-1,1.9l2.3,1.898l-1.5,5.5
			l-1.3,4.5l-1.102,3.9l-0.8,4.5l0.8,2.4l1.802,7l1,6.1l1.8,2.7l-1,1.5L452.1,571.6L446.4,567.7l-5.5-1.102l-1.302,0.5l-3.198-0.6
			l-4.2-3.1l-5.2-1.1l-7.6-3.398L417.3,555l-1.3-6.5l-3.2-1.9l-0.6-2.3l0.6-0.6l0.3-3.4l-1.3-0.6l-0.6-1l1.3-4.4l-1.6-2.3l-3.2-1.3
			l-3.4-4.4l-3.6-6.6l-4.2-2.601l0.2-1.899l-5.3-12.3l-0.8-4.2l-1.8-1.9l-0.2-1.5l-6-5.3l-2.6-3.1V485.8l-2.6-2.1l-6.8-1.101
			l-7.4-0.6l-3.1-2.3l-4.5,1.8L352,483l-2.3,3.2l-1,3.7l-4.4,6.1l-2.4,2.4l-2.6-1l-1.8-1.102l-1.9-0.6l-3.9-2.3v-0.6l-1.8-1.898
			l-5.2-2.102l-7.4-7.8l-2.3-4.7v-8.1l-3.2-6.5l-0.5-2.7l-1.6-1l-1.1-2.1l-5-2.102l-1.3-1.6l-7.1-7.9l-1.3-3.2l-4.7-2.3l-1.5-4.398
			l-2.6-2.9l-1.7-0.5L282.8,425.6z M457.2,567.3l-0.602-7.1L453.9,553l-0.602-7l1.5-8.2l3.3-6.898l3.5-5.4l3.2-3.6l0.602,0.198
			L460.6,528.7l-4.398,6.5l-2,6.6l-0.3,5.2l0.898,6.1l2.602,7.2l0.5,5.2l0.198,1.5L457.2,567.3z"/>
		<path id="VA" stroke="#00FF00" stroke-miterlimit="10" d="M834.7,265.2l-0.2,2.8l-2.9,3.8l-0.398,4.6l0.5,3.4l-1.8,5l-2.2,1.9
			l-1.5-4.6l0.398-5.4l1.602-4.2l0.7-3.3l-0.102-1.7L834.7,265.2z M774.4,309.8L735.8,315.4L731,315.3l-2.2-0.3l-2.5,1.9L719,317
			l-10.3,1.6L702,319.2l4.1-2.602l4.102-2.3v-2.1l5.7-7.301l4.1-3.699l2.2-2.5l3.6,4.3l3.8,0.899l2.7-1l2-1.5l2.4,1.199l4.6-1.3
			l1.7-4.4l2.4,0.7l3.198-2.299l1.602,0.4l2.8-3.2l0.2-2.7l-0.8-1.2l4.8-10.5l1.8-5.2l0.5-4.7l0.7-0.2l1.1,1.7l1.5,1.2l3.9-0.2
			l1.7-8.1l3-0.6l0.8-2.6l2.8-2.2l1.1-2.1l1.802-4.3l0.1-4.6l3.6,1.4l6.602,3.1l0.3-5.2l3.4,1.2l-0.602,2.9l8.602,3.1l1.398,1.8
			l-0.8,3.3l-1.3,1.3l-0.5,1.7l0.5,2.4l2,1.3l3.898,1.4l2.9,1l4.9,0.9l2.198,2.1l3.2,0.4l0.9,1.2l-0.4,4.7l1.4,1.1l-0.5,1.9l1.2,0.8
			l-0.2,1.4l-2.7-0.1l0.1,1.6l2.302,1.5l0.1,1.4l1.8,1.8l0.5,2.5l-2.6,1.4l1.6,1.5l5.8-1.7l3.7,6.2L774.4,309.8z"/>
	</g>
	<path id="VT" stroke="#00FF00" stroke-miterlimit="10" d="M832.7,111.3l2.398,6.5l0.802,5.3l-1,3.9l2.5,4.4l0.898,2.3l-0.7,2.6
		l3.302,1.5l2.898,10.8v5.3l11.5-2.1l-1-1.1l0.602-1.9l0.198-4.3l-1-1.4l0.2-4.7l0.8-9.3v-8.5l-1.1-1.8v-1.6l2.8-1.1l3.5-4.4v-3.6
		l-1.898-2.7l-0.302-5.79L832,106.4L832.7,111.3z"/>
	<path id="WI" stroke="#00FF00" stroke-miterlimit="10" d="M541.4,109.9l2.898,0.5l2.9-0.6l7.398-3.2l2.9-1.9l2.1-0.8l1.9,1.5
		l-1.1,1.1l-1.9,3.1l-0.6,1.9l1,0.6l1.8-1l1.1-0.2l2.7,0.8l0.6,1.1l1.102,0.2l0.6-1.1l4,5.3l8.2,1.2l8.2,2.2l2.6,1.1l12.3,2.6
		l1.602,2.3l3.6,1.2L609,138l1.6,1.4l1.5,0.9l-1.1,2.3l-1.8,1.6l-2.102,4.7l-1.3,2.4l0.2,1.8l1.5,0.3l1.1-1.9l1.5-0.8l0.802-2.3
		l1.898-1.8l2.7-4l4.2-6.3l0.8-0.5l0.3,1l-0.2,2.3l-2.898,6.8l-2.7,5.7l-0.5,3.2l-0.6,2.6l0.8,1.3l-0.2,2.7l-1.9,2.4l-0.5,1.8
		l0.602,3.6l0.6,3.4l-1.5,2.6l-0.8,2.9l-1,3.1l1.1,2.4l0.602,6.1l1.6,4.5l-0.2,3L597.2,199l-17.5,1H567l-0.7-1.5l-2.899-0.4
		l-2.601-1.3l-2.3-3.7l-0.3-3.6l2-2.9l-0.5-1.4L557.6,183l-0.8-3.3l-0.6-6.8l-2.102-2.5l-7-4.5l-3.8-5.4l-3.398-1l-2.2-2.8h-3.2
		l-2.9-3.3l-0.5-6.5l0.102-3.8l1.5-3.1l-0.8-3.2l-2.5-2.8l1.8-5.4l5.2-3.8l1.6-1.9l-0.2-8.1l0.2-2.8l2.4-2.8L541.4,109.9z"/>
	<path id="WV" stroke="#00FF00" stroke-miterlimit="10" d="M758.9,254.3l5.8-6l2.6-0.8l1.602-1.5l1.5-2.2l1.1,0.3l3.1-0.2l4.602-3.6
		l1.5-0.5l1.3,1l2.6,1.2l3,3l-0.398,4.3l-5.4-2.6l-4.8-1.8l-0.1,5.9l-2.602,5.7l-2.898,2.4l-0.802,2.3l-3,0.5l-1.698,8.1L763.1,270
		l-1.1-1l-1.2-2l-2.2,0.5l-0.5,5.1l-1.8,5.1l-5,11l0.9,1.4l-0.102,2l-2.198,2.5l-1.602-0.4l-3.1,2.3l-2.8-0.8l-1.8,4.899l-3.8,1
		l-2.5-1.3l-2.5,1.9l-2.3,0.7l-3.2-0.801l-3.8-4.5l-3.5-2.201l-2.5-2.5l-2.9-3.7l-0.5-2.3l-2.8-1.7l-0.6-1.3l-0.2-5.6l0.3,0.1
		l2.4-0.2l1.8-1V275l1.7-1.5l0.1-5.2l0.9-3.6l1.1-0.7l0.4,0.3l1,1.1l1.7,0.5l1.1-1.3l-1-3.1v-1.6l3.1-4.6l1.2-1.3l2,0.5l2.602-1.8
		l3.1-3.4l2.4-4.1l0.198-5.6l0.5-4.8v-4.9l-1.1-3l0.9-1.3l0.8-0.7l4.3,19.3l4.3-0.8l11.2-1.3L758.9,254.3z"/>
	<g>
		<path id="AZ" stroke="#00FF00" stroke-miterlimit="10" d="M135.1,389.7l-0.3,1.5l0.5,1l18.9,10.7l12.1,7.6l14.7,8.6l16.8,10
			l12.3,2.4l25.4,2.7l6-39.602l7-53.1l4.4-31l-24.6-3.6l-60.7-11l-0.2,1.1l-2.6,16.5l-2.1,3.8l-2.8-0.2l-1.2-2.6l-2.6-0.4l-1.2-1.1
			l-1.1,0.1l-2.1,1.7l-0.3,6.8l-0.3,1.5l-0.5,12.5l-1.5,2.4l-0.4,3.3l2.8,5l1.1,5.5l0.7,1.102l1.1,0.898l-0.4,2.4l-1.7,1.2l-3.4,1.6
			l-1.6,1.8l-1.6,3.602l-0.5,4.898l-3,2.9l-1.9,0.898l-0.1,5.802l-0.6,1.6l0.5,0.8l3.9,0.4l-0.9,3l-1.7,2.398l-3.7,0.4L135.1,389.7z
			"/>
		<path id="CA" stroke="#00FF00" stroke-miterlimit="10" d="M122.7,385.9l-19.7-2.7l-10-1.5l-0.5-1.8v-9.4l-0.3-3.2l-2.6-4.2
			l-0.8-2.3l-3.9-4.2L82,351.9l-2.7-0.2l-3.2-0.8l-0.3-1l1.5-0.602l-0.6-3.2l-1.5-2.1l-4.8-0.8l-3.9-2.102l-1.1-2.3l-2.6-4.8
			l-2.9-3.1H57l-3.9-2.102l-4.5-1.8l-4.2-0.5l-2.4-2.7l0.5-1.898l1.8-7.102l0.8-1.898v-2.4l-1.6-1l-0.5-2.9l-1.5-2.6l-3.4-5.8
			l-1.3-3.1l-1.5-4.7l-1.6-5.3l-3.2-4.4l-0.5-2.9l0.8-3.9h1.1l2.1-1.6l1.1-3.6l-1-2.7l-2.7-0.5l-1.9-2.6l-2.1-3.7l-0.2-8.2l0.6-1.9
			l0.6-2.3l0.5-2.4l-5.7-6.3V236l0.3-0.5l0.3-3.2l-1.3-4l-2.3-4.8l-2.7-4.5l-1.8-3.9l1-3.7l0.6-5.8l1.8-3.1l0.3-6.5l-1.1-3.6
			l-1.6-4.2L14,184l0.8-3.2l1.5-4.2l1.8-0.8l0.3-1.1l3.1-2.6l5.2-11.8l0.2-7.4l1.69-4.9l38.69,11.8l25.6,6.6l-8,31.3l-8.67,33.1
			L88.84,250L131,312.3l17.1,26.102l-0.4,3.1l2.8,5.2l1.1,5.398l1,1.5l0.7,0.602l-0.2,1.398l-1.4,1l-3.4,1.602l-1.9,2.1l-1.7,3.9
			l-0.5,4.7l-2.6,2.5l-2.3,1.1l-0.1,6.2l-0.6,1.898l1,1.7l3,0.3l-0.4,1.602l-1.4,2l-3.9,0.6L122.7,385.9z M48.8,337l1.3,1.5
			l-0.2,1.3l-3.2-0.1l-0.6-1.2l-0.6-1.5H48.8L48.8,337z M50.7,337l1.2-0.6l3.6,2.1l3.1,1.2l-0.9,0.6l-4.5-0.2l-1.6-1.6L50.7,337z
			 M71.4,356.8l1.8,2.3l0.8,1l1.5,0.602l0.6-1.5l-1-1.8l-2.7-2l-1.1,0.198v1.2H71.4L71.4,356.8z M70,365.5l1.8,3.2L73,370.6
			l-1.5,0.2l-1.3-1.2c0,0-0.7-1.5-0.7-1.898c0-0.4,0-2.2,0-2.2L70,365.5L70,365.5z"/>
		<path id="CO" stroke="#00FF00" stroke-miterlimit="10" d="M380.2,235.5l-36-3.5l-79.1-8.6l-2.2,22.1l-7,50.4l-1.9,13.7l34,3.9
			l37.5,4.4l34.7,3l14.3,0.6L380.2,235.5z"/>
		<path id="ID" stroke="#00FF00" stroke-miterlimit="10" d="M175.3,27.63l-4.8,17.41L166,65.9l-3.4,16.22l-0.4,9.67l1.2,4.44
			l3.5,2.66l-0.2,3.91l-3.9,4.4l-4.5,6.6l-0.9,2.9l-1.2,1.1l-1.8,0.8l-4.3,5.3l-0.4,3.1l-0.4,1.1l0.6,1l2.6-0.1l1.1,2.3l-2.4,5.8
			l-1.2,4.2l-8.8,35.3l20.7,4.5l39.5,7.9l34.8,6.1l4.9-29.2l3.8-24.1l-2.7-2.4l-0.4-2.6l-0.8-1.1l-2.1,1l-0.7,2.6l-3.2,0.5l-3.9-1.6
			l-3.8,0.1l-2.5,0.7l-3.4-1.5l-2.4,0.2l-2.4,2l-2-1.1l-0.7-4l0.7-2.9l-2.5-2.9l-3.3-2.6l-2.7-13.1l-0.1-4.7l-0.3-0.1l-0.2,0.4
			l-5.1,3.5l-1.7-0.2l-2.9-3.4l-0.2-3.1l7-17.13l-0.4-1.94l-3.4-1.15l-0.6-1.18l-2.6-3.46L191,70.41l-3.2-1.53l-2-4.95l1.3-4.63
			l-3.2-7.58l4.4-21.52L175.3,27.63z"/>
		<path id="MT" stroke="#00FF00" stroke-miterlimit="10" d="M361.1,70.77l-5.3,57.13l-1.3,15.2l-59.1-6.6l-49-7.1l-1.4,11.2
			l-1.9-1.7l-0.4-2.5l-1.3-1.9l-3.3,1.5l-0.7,2.5l-2.3,0.3l-3.8-1.6l-4.1,0.1l-2.4,0.7l-3.2-1.5l-3,0.2l-2.1,1.9l-0.9-0.6l-0.7-3.4
			l0.7-3.2l-2.7-3.2l-3.3-2.5l-2.5-12.6l-0.1-5.3l-1.6-0.8l-0.6,1l-4.5,3.2l-1.2-0.1l-2.3-2.8l-0.2-2.8l7-17.15l-0.6-2.67l-3.5-1.12
			l-0.4-0.91l-2.7-3.5l-4.6-10.41l-3.2-1.58l-1.8-4.26l1.3-4.63l-3.2-7.57l4.4-21.29L222,37.3l18.4,3.4l32.3,5.3l29.3,4l29.2,3.5
			l30.8,3.07L361.1,70.77z"/>
		<path id="NM" stroke="#00FF00" stroke-miterlimit="10" d="M270.2,429.4l-16.7-2.602l-1.2,9.602l-15.8-2l6-39.7l7-53.2l4.4-30.9
			l34,3.9l37.4,4.4l32,2.8l-0.3,10.8l-1.4-0.1l-7.4,97.698l-28.4-1.8l-38.1-3.7l0.7,6.302L270.2,429.4z"/>
		<path id="NV" stroke="#00FF00" stroke-miterlimit="10" d="M123.1,173.6l38.7,8.5l26,5.2l-10.6,53.1l-5.4,29.8l-3.3,15.5l-2.1,11.1
			l-2.6,16.4l-1.7,3.1l-1.6-0.1l-1.2-2.602l-2.8-0.5l-1.3-1.1l-1.8,0.1l-0.9,0.802l-1.8,1.3l-0.3,7.3l-0.3,1.5l-0.5,12.4l-1.1,1.8
			l-16.7-25.5l-42.1-62.1l-12.43-19l8.55-32.6l8.01-31.3L123.1,173.6z"/>
		<path id="OR" stroke="#00FF00" stroke-miterlimit="10" d="M67.44,158.9l28.24,7.2l27.52,6.5l17,3.7l8.8-35.1l1.2-4.4l2.4-5.5
			l-0.7-1.3l-2.5,0.1l-1.3-1.8l0.6-1.5l0.4-3.3l4.7-5.7l1.9-0.9l0.9-0.8l0.7-2.7l0.8-1.1l3.9-5.7l3.7-4l0.2-3.26l-3.4-2.49
			l-1.2-4.55l-13.1-3.83L132.9,85l-14.8,0.37l-1.1-1.31l-5.1,1.84l-4.5-0.48l-2.4-1.58l-1.3,0.54l-4.68-0.29l-1.96-1.43l-4.84-1.77
			l-1.1-0.07l-4.45-1.27l-1.76,1.52l-6.26-0.24l-5.31-3.85l0.21-9.28l-2.05-3.5l-4.1-0.6l-0.7-2.5l-2.4-0.5l-5.8,2.1l-2.3,6.5
			l-3.2,10l-3.2,6.5l-5,14.1l-6.5,13.6L30.2,126l-1.9,2.9l-0.8,8.6l-1.3,6l2.71,3.5L67.44,158.9z"/>
		<path id="UT" stroke="#00FF00" stroke-miterlimit="10" d="M228.4,305.9l24.6,3.6l1.9-13.7l7-50.5l2.3-22l-32.2-3.5l2.2-13.1
			l1.8-10.6l-34.7-6.1l-12.5-2.5l-10.6,52.9l-5.4,30l-3.3,15.4l-1.7,9.2L228.4,305.9z"/>
		<path id="WA" stroke="#00FF00" stroke-miterlimit="10" d="M74.5,67.7l-2.3-4.3l-4.1-0.7l-0.4-2.4l-2.5-0.6l-2.9-0.5l-1.8,1
			l-2.3-2.9l0.3-2.9l2.7-0.3l1.6-4L60.2,49l0.2-3.7l4.4-0.6L62.1,42l-1.5-7.1l0.6-2.9v-7.9l-1.8-3.2l2.3-9.4l2.1,0.5l2.4,2.9
			l2.7,2.6l3.2,1.9l4.5,2.1l3.1,0.6l2.9,1.5l3.4,1l2.3-0.2V22l1.3-1.1l2.1-1.3l0.3,1.1l0.3,1.8L90,23l-0.3,2.1l1.8,1.5l1.1,2.4
			l0.6,1.9l1.5-0.2l0.2-1.3l-1-1.3l-0.5-3.2l0.8-1.8l-0.6-1.5V19l1.8-3.6l-1.1-2.6L91.9,8l0.3-0.8l1.4-0.8L98,7.9l9.7,2.7l8.6,1.9
			l20,5.7l23,5.7l15,3.49l-4.8,17.56L165,65.78l-3.4,16.25l-0.4,9.18l0,0l-12.9-3.72L133,84.02l-14.5,0.32l-1.1-1.53l-5.7,2.09
			l-3.9-0.42l-2.6-1.79l-1.7,0.65l-4.15-0.25l-1.72-1.32l-5.16-1.82l-1.18-0.16l-4.8-1.39l-1.92,1.65l-5.65-0.25l-4.61-3.35
			L74.5,67.7z M84.1,12.3l2-0.2l0.5,1.4l1.5-1.6h2.3l0.8,1.5l-1.5,1.7l0.6,0.8l-0.7,2l-1.4,0.4c0,0-0.9,0.1-0.9-0.2
			c0-0.3,1.5-2.6,1.5-2.6l-1.7-0.6l-0.3,1.5L86.1,17l-1.5-2.3L84.1,12.3z"/>
		<path id="WY" stroke="#00FF00" stroke-miterlimit="10" d="M353,161.9l-1.5,25.4l-4.4,44l-2.7-0.3l-83.3-9.1l-27.9-3l2-12l6.9-41
			l3.8-24.2l1.3-11.2l48.2,7l59.1,6.5L353,161.9z"/>
	</g>
	<g id="DC">
		<path id="DC1" stroke="#00FF00" stroke-miterlimit="10" d="M801.8,253.8l-1.1-1.6l-1-0.8l1.1-1.6l2.2,1.5L801.8,253.8z"/>
		<circle id="DC2" stroke="#00FF00" stroke-width="1.5" cx="801.3" cy="251.8" r="5"/>
	</g>
</g>
</svg>
